<svg xmlns="http://www.w3.org/2000/svg" version="1.1" xmlns:xlink="http://www.w3.org/1999/xlink" xmlns:svgjs="http://svgjs.dev/svgjs" viewBox="0 0 2400 800"><defs><linearGradient x1="50%" y1="0%" x2="50%" y2="100%" id="sssurf-grad"><stop stop-color="#f99d4b" stop-opacity="1" offset="0%"></stop><stop stop-color="#f99d4b" stop-opacity="1" offset="100%"></stop></linearGradient></defs><g fill="url(#sssurf-grad)" transform="matrix(1,0,0,1,0,-90.34628295898438)"><path d="M 0 339.0754650073118 Q 600 450 600 336.0555273546241 Q 1200 450 1200 314.8273238740126 Q 1800 450 1800 341.16246194327425 Q 2400 450 2400 344.20044090926933 L 2400 800 L 0 800 L 0 300.6925661933116 Z" transform="matrix(1,0,0,1,0,35)" opacity="0.05"></path><path d="M 0 339.0754650073118 Q 600 450 600 336.0555273546241 Q 1200 450 1200 314.8273238740126 Q 1800 450 1800 341.16246194327425 Q 2400 450 2400 344.20044090926933 L 2400 800 L 0 800 L 0 300.6925661933116 Z" transform="matrix(1,0,0,1,0,70)" opacity="0.21"></path><path d="M 0 339.0754650073118 Q 600 450 600 336.0555273546241 Q 1200 450 1200 314.8273238740126 Q 1800 450 1800 341.16246194327425 Q 2400 450 2400 344.20044090926933 L 2400 800 L 0 800 L 0 300.6925661933116 Z" transform="matrix(1,0,0,1,0,105)" opacity="0.37"></path><path d="M 0 339.0754650073118 Q 600 450 600 336.0555273546241 Q 1200 450 1200 314.8273238740126 Q 1800 450 1800 341.16246194327425 Q 2400 450 2400 344.20044090926933 L 2400 800 L 0 800 L 0 300.6925661933116 Z" transform="matrix(1,0,0,1,0,140)" opacity="0.53"></path><path d="M 0 339.0754650073118 Q 600 450 600 336.0555273546241 Q 1200 450 1200 314.8273238740126 Q 1800 450 1800 341.16246194327425 Q 2400 450 2400 344.20044090926933 L 2400 800 L 0 800 L 0 300.6925661933116 Z" transform="matrix(1,0,0,1,0,175)" opacity="0.68"></path><path d="M 0 339.0754650073118 Q 600 450 600 336.0555273546241 Q 1200 450 1200 314.8273238740126 Q 1800 450 1800 341.16246194327425 Q 2400 450 2400 344.20044090926933 L 2400 800 L 0 800 L 0 300.6925661933116 Z" transform="matrix(1,0,0,1,0,210)" opacity="0.84"></path><path d="M 0 339.0754650073118 Q 600 450 600 336.0555273546241 Q 1200 450 1200 314.8273238740126 Q 1800 450 1800 341.16246194327425 Q 2400 450 2400 344.20044090926933 L 2400 800 L 0 800 L 0 300.6925661933116 Z" transform="matrix(1,0,0,1,0,245)" opacity="1"></path></g></svg>