<svg xmlns="http://www.w3.org/2000/svg" version="1.1" xmlns:xlink="http://www.w3.org/1999/xlink" xmlns:svgjs="http://svgjs.dev/svgjs" viewBox="0 0 2400 800"><defs><linearGradient x1="50%" y1="0%" x2="50%" y2="100%" id="sssurf-grad"><stop stop-color="#fa9b25" stop-opacity="1" offset="0%"></stop><stop stop-color="hsl(305, 77%, 80%)" stop-opacity="1" offset="100%"></stop></linearGradient></defs><g fill="url(#sssurf-grad)" transform="matrix(1,0,0,1,10.8282470703125,45.30187129974365)"><path d="M-10,10C33.75,11.25,114.58333333333334,22.25,200,16C285.41666666666663,9.75,316.66666666666663,-25.625,400,-20C483.33333333333337,-14.375,516.6666666666666,40.916666666666664,600,43C683.3333333333334,45.083333333333336,716.6666666666666,-6.041666666666667,800,-10C883.3333333333334,-13.958333333333332,916.6666666666666,22.75,1000,24C1083.3333333333333,25.25,1116.6666666666667,-4,1200,-4C1283.3333333333333,-4,1316.6666666666667,24.416666666666668,1400,24C1483.3333333333333,23.583333333333332,1516.6666666666667,-6.833333333333333,1600,-6C1683.3333333333333,-5.166666666666667,1716.6666666666667,26.333333333333332,1800,28C1883.3333333333333,29.666666666666668,1916.6666666666667,-1.541666666666667,2000,2C2083.3333333333335,5.541666666666667,2118.75,43.333333333333336,2200,45C2281.25,46.666666666666664,2296.25,-63.95833333333333,2390,10C2483.75,83.95833333333333,3252.0833333333335,214.58333333333331,2650,400C2047.9166666666665,585.4166666666667,156.25,795.8333333333334,-500,900" transform="matrix(1,0,0,1,0,35)" opacity="0.05"></path><path d="M-10,10C33.75,11.25,114.58333333333334,22.25,200,16C285.41666666666663,9.75,316.66666666666663,-25.625,400,-20C483.33333333333337,-14.375,516.6666666666666,40.916666666666664,600,43C683.3333333333334,45.083333333333336,716.6666666666666,-6.041666666666667,800,-10C883.3333333333334,-13.958333333333332,916.6666666666666,22.75,1000,24C1083.3333333333333,25.25,1116.6666666666667,-4,1200,-4C1283.3333333333333,-4,1316.6666666666667,24.416666666666668,1400,24C1483.3333333333333,23.583333333333332,1516.6666666666667,-6.833333333333333,1600,-6C1683.3333333333333,-5.166666666666667,1716.6666666666667,26.333333333333332,1800,28C1883.3333333333333,29.666666666666668,1916.6666666666667,-1.541666666666667,2000,2C2083.3333333333335,5.541666666666667,2118.75,43.333333333333336,2200,45C2281.25,46.666666666666664,2296.25,-63.95833333333333,2390,10C2483.75,83.95833333333333,3252.0833333333335,214.58333333333331,2650,400C2047.9166666666665,585.4166666666667,156.25,795.8333333333334,-500,900" transform="matrix(1,0,0,1,0,70)" opacity="0.11"></path><path d="M-10,10C33.75,11.25,114.58333333333334,22.25,200,16C285.41666666666663,9.75,316.66666666666663,-25.625,400,-20C483.33333333333337,-14.375,516.6666666666666,40.916666666666664,600,43C683.3333333333334,45.083333333333336,716.6666666666666,-6.041666666666667,800,-10C883.3333333333334,-13.958333333333332,916.6666666666666,22.75,1000,24C1083.3333333333333,25.25,1116.6666666666667,-4,1200,-4C1283.3333333333333,-4,1316.6666666666667,24.416666666666668,1400,24C1483.3333333333333,23.583333333333332,1516.6666666666667,-6.833333333333333,1600,-6C1683.3333333333333,-5.166666666666667,1716.6666666666667,26.333333333333332,1800,28C1883.3333333333333,29.666666666666668,1916.6666666666667,-1.541666666666667,2000,2C2083.3333333333335,5.541666666666667,2118.75,43.333333333333336,2200,45C2281.25,46.666666666666664,2296.25,-63.95833333333333,2390,10C2483.75,83.95833333333333,3252.0833333333335,214.58333333333331,2650,400C2047.9166666666665,585.4166666666667,156.25,795.8333333333334,-500,900" transform="matrix(1,0,0,1,0,105)" opacity="0.17"></path><path d="M-10,10C33.75,11.25,114.58333333333334,22.25,200,16C285.41666666666663,9.75,316.66666666666663,-25.625,400,-20C483.33333333333337,-14.375,516.6666666666666,40.916666666666664,600,43C683.3333333333334,45.083333333333336,716.6666666666666,-6.041666666666667,800,-10C883.3333333333334,-13.958333333333332,916.6666666666666,22.75,1000,24C1083.3333333333333,25.25,1116.6666666666667,-4,1200,-4C1283.3333333333333,-4,1316.6666666666667,24.416666666666668,1400,24C1483.3333333333333,23.583333333333332,1516.6666666666667,-6.833333333333333,1600,-6C1683.3333333333333,-5.166666666666667,1716.6666666666667,26.333333333333332,1800,28C1883.3333333333333,29.666666666666668,1916.6666666666667,-1.541666666666667,2000,2C2083.3333333333335,5.541666666666667,2118.75,43.333333333333336,2200,45C2281.25,46.666666666666664,2296.25,-63.95833333333333,2390,10C2483.75,83.95833333333333,3252.0833333333335,214.58333333333331,2650,400C2047.9166666666665,585.4166666666667,156.25,795.8333333333334,-500,900" transform="matrix(1,0,0,1,0,140)" opacity="0.23"></path><path d="M-10,10C33.75,11.25,114.58333333333334,22.25,200,16C285.41666666666663,9.75,316.66666666666663,-25.625,400,-20C483.33333333333337,-14.375,516.6666666666666,40.916666666666664,600,43C683.3333333333334,45.083333333333336,716.6666666666666,-6.041666666666667,800,-10C883.3333333333334,-13.958333333333332,916.6666666666666,22.75,1000,24C1083.3333333333333,25.25,1116.6666666666667,-4,1200,-4C1283.3333333333333,-4,1316.6666666666667,24.416666666666668,1400,24C1483.3333333333333,23.583333333333332,1516.6666666666667,-6.833333333333333,1600,-6C1683.3333333333333,-5.166666666666667,1716.6666666666667,26.333333333333332,1800,28C1883.3333333333333,29.666666666666668,1916.6666666666667,-1.541666666666667,2000,2C2083.3333333333335,5.541666666666667,2118.75,43.333333333333336,2200,45C2281.25,46.666666666666664,2296.25,-63.95833333333333,2390,10C2483.75,83.95833333333333,3252.0833333333335,214.58333333333331,2650,400C2047.9166666666665,585.4166666666667,156.25,795.8333333333334,-500,900" transform="matrix(1,0,0,1,0,175)" opacity="0.29"></path><path d="M-10,10C33.75,11.25,114.58333333333334,22.25,200,16C285.41666666666663,9.75,316.66666666666663,-25.625,400,-20C483.33333333333337,-14.375,516.6666666666666,40.916666666666664,600,43C683.3333333333334,45.083333333333336,716.6666666666666,-6.041666666666667,800,-10C883.3333333333334,-13.958333333333332,916.6666666666666,22.75,1000,24C1083.3333333333333,25.25,1116.6666666666667,-4,1200,-4C1283.3333333333333,-4,1316.6666666666667,24.416666666666668,1400,24C1483.3333333333333,23.583333333333332,1516.6666666666667,-6.833333333333333,1600,-6C1683.3333333333333,-5.166666666666667,1716.6666666666667,26.333333333333332,1800,28C1883.3333333333333,29.666666666666668,1916.6666666666667,-1.541666666666667,2000,2C2083.3333333333335,5.541666666666667,2118.75,43.333333333333336,2200,45C2281.25,46.666666666666664,2296.25,-63.95833333333333,2390,10C2483.75,83.95833333333333,3252.0833333333335,214.58333333333331,2650,400C2047.9166666666665,585.4166666666667,156.25,795.8333333333334,-500,900" transform="matrix(1,0,0,1,0,210)" opacity="0.35"></path><path d="M-10,10C33.75,11.25,114.58333333333334,22.25,200,16C285.41666666666663,9.75,316.66666666666663,-25.625,400,-20C483.33333333333337,-14.375,516.6666666666666,40.916666666666664,600,43C683.3333333333334,45.083333333333336,716.6666666666666,-6.041666666666667,800,-10C883.3333333333334,-13.958333333333332,916.6666666666666,22.75,1000,24C1083.3333333333333,25.25,1116.6666666666667,-4,1200,-4C1283.3333333333333,-4,1316.6666666666667,24.416666666666668,1400,24C1483.3333333333333,23.583333333333332,1516.6666666666667,-6.833333333333333,1600,-6C1683.3333333333333,-5.166666666666667,1716.6666666666667,26.333333333333332,1800,28C1883.3333333333333,29.666666666666668,1916.6666666666667,-1.541666666666667,2000,2C2083.3333333333335,5.541666666666667,2118.75,43.333333333333336,2200,45C2281.25,46.666666666666664,2296.25,-63.95833333333333,2390,10C2483.75,83.95833333333333,3252.0833333333335,214.58333333333331,2650,400C2047.9166666666665,585.4166666666667,156.25,795.8333333333334,-500,900" transform="matrix(1,0,0,1,0,245)" opacity="0.41"></path><path d="M-10,10C33.75,11.25,114.58333333333334,22.25,200,16C285.41666666666663,9.75,316.66666666666663,-25.625,400,-20C483.33333333333337,-14.375,516.6666666666666,40.916666666666664,600,43C683.3333333333334,45.083333333333336,716.6666666666666,-6.041666666666667,800,-10C883.3333333333334,-13.958333333333332,916.6666666666666,22.75,1000,24C1083.3333333333333,25.25,1116.6666666666667,-4,1200,-4C1283.3333333333333,-4,1316.6666666666667,24.416666666666668,1400,24C1483.3333333333333,23.583333333333332,1516.6666666666667,-6.833333333333333,1600,-6C1683.3333333333333,-5.166666666666667,1716.6666666666667,26.333333333333332,1800,28C1883.3333333333333,29.666666666666668,1916.6666666666667,-1.541666666666667,2000,2C2083.3333333333335,5.541666666666667,2118.75,43.333333333333336,2200,45C2281.25,46.666666666666664,2296.25,-63.95833333333333,2390,10C2483.75,83.95833333333333,3252.0833333333335,214.58333333333331,2650,400C2047.9166666666665,585.4166666666667,156.25,795.8333333333334,-500,900" transform="matrix(1,0,0,1,0,280)" opacity="0.47"></path><path d="M-10,10C33.75,11.25,114.58333333333334,22.25,200,16C285.41666666666663,9.75,316.66666666666663,-25.625,400,-20C483.33333333333337,-14.375,516.6666666666666,40.916666666666664,600,43C683.3333333333334,45.083333333333336,716.6666666666666,-6.041666666666667,800,-10C883.3333333333334,-13.958333333333332,916.6666666666666,22.75,1000,24C1083.3333333333333,25.25,1116.6666666666667,-4,1200,-4C1283.3333333333333,-4,1316.6666666666667,24.416666666666668,1400,24C1483.3333333333333,23.583333333333332,1516.6666666666667,-6.833333333333333,1600,-6C1683.3333333333333,-5.166666666666667,1716.6666666666667,26.333333333333332,1800,28C1883.3333333333333,29.666666666666668,1916.6666666666667,-1.541666666666667,2000,2C2083.3333333333335,5.541666666666667,2118.75,43.333333333333336,2200,45C2281.25,46.666666666666664,2296.25,-63.95833333333333,2390,10C2483.75,83.95833333333333,3252.0833333333335,214.58333333333331,2650,400C2047.9166666666665,585.4166666666667,156.25,795.8333333333334,-500,900" transform="matrix(1,0,0,1,0,315)" opacity="0.53"></path><path d="M-10,10C33.75,11.25,114.58333333333334,22.25,200,16C285.41666666666663,9.75,316.66666666666663,-25.625,400,-20C483.33333333333337,-14.375,516.6666666666666,40.916666666666664,600,43C683.3333333333334,45.083333333333336,716.6666666666666,-6.041666666666667,800,-10C883.3333333333334,-13.958333333333332,916.6666666666666,22.75,1000,24C1083.3333333333333,25.25,1116.6666666666667,-4,1200,-4C1283.3333333333333,-4,1316.6666666666667,24.416666666666668,1400,24C1483.3333333333333,23.583333333333332,1516.6666666666667,-6.833333333333333,1600,-6C1683.3333333333333,-5.166666666666667,1716.6666666666667,26.333333333333332,1800,28C1883.3333333333333,29.666666666666668,1916.6666666666667,-1.541666666666667,2000,2C2083.3333333333335,5.541666666666667,2118.75,43.333333333333336,2200,45C2281.25,46.666666666666664,2296.25,-63.95833333333333,2390,10C2483.75,83.95833333333333,3252.0833333333335,214.58333333333331,2650,400C2047.9166666666665,585.4166666666667,156.25,795.8333333333334,-500,900" transform="matrix(1,0,0,1,0,350)" opacity="0.58"></path><path d="M-10,10C33.75,11.25,114.58333333333334,22.25,200,16C285.41666666666663,9.75,316.66666666666663,-25.625,400,-20C483.33333333333337,-14.375,516.6666666666666,40.916666666666664,600,43C683.3333333333334,45.083333333333336,716.6666666666666,-6.041666666666667,800,-10C883.3333333333334,-13.958333333333332,916.6666666666666,22.75,1000,24C1083.3333333333333,25.25,1116.6666666666667,-4,1200,-4C1283.3333333333333,-4,1316.6666666666667,24.416666666666668,1400,24C1483.3333333333333,23.583333333333332,1516.6666666666667,-6.833333333333333,1600,-6C1683.3333333333333,-5.166666666666667,1716.6666666666667,26.333333333333332,1800,28C1883.3333333333333,29.666666666666668,1916.6666666666667,-1.541666666666667,2000,2C2083.3333333333335,5.541666666666667,2118.75,43.333333333333336,2200,45C2281.25,46.666666666666664,2296.25,-63.95833333333333,2390,10C2483.75,83.95833333333333,3252.0833333333335,214.58333333333331,2650,400C2047.9166666666665,585.4166666666667,156.25,795.8333333333334,-500,900" transform="matrix(1,0,0,1,0,385)" opacity="0.64"></path><path d="M-10,10C33.75,11.25,114.58333333333334,22.25,200,16C285.41666666666663,9.75,316.66666666666663,-25.625,400,-20C483.33333333333337,-14.375,516.6666666666666,40.916666666666664,600,43C683.3333333333334,45.083333333333336,716.6666666666666,-6.041666666666667,800,-10C883.3333333333334,-13.958333333333332,916.6666666666666,22.75,1000,24C1083.3333333333333,25.25,1116.6666666666667,-4,1200,-4C1283.3333333333333,-4,1316.6666666666667,24.416666666666668,1400,24C1483.3333333333333,23.583333333333332,1516.6666666666667,-6.833333333333333,1600,-6C1683.3333333333333,-5.166666666666667,1716.6666666666667,26.333333333333332,1800,28C1883.3333333333333,29.666666666666668,1916.6666666666667,-1.541666666666667,2000,2C2083.3333333333335,5.541666666666667,2118.75,43.333333333333336,2200,45C2281.25,46.666666666666664,2296.25,-63.95833333333333,2390,10C2483.75,83.95833333333333,3252.0833333333335,214.58333333333331,2650,400C2047.9166666666665,585.4166666666667,156.25,795.8333333333334,-500,900" transform="matrix(1,0,0,1,0,420)" opacity="0.70"></path><path d="M-10,10C33.75,11.25,114.58333333333334,22.25,200,16C285.41666666666663,9.75,316.66666666666663,-25.625,400,-20C483.33333333333337,-14.375,516.6666666666666,40.916666666666664,600,43C683.3333333333334,45.083333333333336,716.6666666666666,-6.041666666666667,800,-10C883.3333333333334,-13.958333333333332,916.6666666666666,22.75,1000,24C1083.3333333333333,25.25,1116.6666666666667,-4,1200,-4C1283.3333333333333,-4,1316.6666666666667,24.416666666666668,1400,24C1483.3333333333333,23.583333333333332,1516.6666666666667,-6.833333333333333,1600,-6C1683.3333333333333,-5.166666666666667,1716.6666666666667,26.333333333333332,1800,28C1883.3333333333333,29.666666666666668,1916.6666666666667,-1.541666666666667,2000,2C2083.3333333333335,5.541666666666667,2118.75,43.333333333333336,2200,45C2281.25,46.666666666666664,2296.25,-63.95833333333333,2390,10C2483.75,83.95833333333333,3252.0833333333335,214.58333333333331,2650,400C2047.9166666666665,585.4166666666667,156.25,795.8333333333334,-500,900" transform="matrix(1,0,0,1,0,455)" opacity="0.76"></path><path d="M-10,10C33.75,11.25,114.58333333333334,22.25,200,16C285.41666666666663,9.75,316.66666666666663,-25.625,400,-20C483.33333333333337,-14.375,516.6666666666666,40.916666666666664,600,43C683.3333333333334,45.083333333333336,716.6666666666666,-6.041666666666667,800,-10C883.3333333333334,-13.958333333333332,916.6666666666666,22.75,1000,24C1083.3333333333333,25.25,1116.6666666666667,-4,1200,-4C1283.3333333333333,-4,1316.6666666666667,24.416666666666668,1400,24C1483.3333333333333,23.583333333333332,1516.6666666666667,-6.833333333333333,1600,-6C1683.3333333333333,-5.166666666666667,1716.6666666666667,26.333333333333332,1800,28C1883.3333333333333,29.666666666666668,1916.6666666666667,-1.541666666666667,2000,2C2083.3333333333335,5.541666666666667,2118.75,43.333333333333336,2200,45C2281.25,46.666666666666664,2296.25,-63.95833333333333,2390,10C2483.75,83.95833333333333,3252.0833333333335,214.58333333333331,2650,400C2047.9166666666665,585.4166666666667,156.25,795.8333333333334,-500,900" transform="matrix(1,0,0,1,0,490)" opacity="0.82"></path><path d="M-10,10C33.75,11.25,114.58333333333334,22.25,200,16C285.41666666666663,9.75,316.66666666666663,-25.625,400,-20C483.33333333333337,-14.375,516.6666666666666,40.916666666666664,600,43C683.3333333333334,45.083333333333336,716.6666666666666,-6.041666666666667,800,-10C883.3333333333334,-13.958333333333332,916.6666666666666,22.75,1000,24C1083.3333333333333,25.25,1116.6666666666667,-4,1200,-4C1283.3333333333333,-4,1316.6666666666667,24.416666666666668,1400,24C1483.3333333333333,23.583333333333332,1516.6666666666667,-6.833333333333333,1600,-6C1683.3333333333333,-5.166666666666667,1716.6666666666667,26.333333333333332,1800,28C1883.3333333333333,29.666666666666668,1916.6666666666667,-1.541666666666667,2000,2C2083.3333333333335,5.541666666666667,2118.75,43.333333333333336,2200,45C2281.25,46.666666666666664,2296.25,-63.95833333333333,2390,10C2483.75,83.95833333333333,3252.0833333333335,214.58333333333331,2650,400C2047.9166666666665,585.4166666666667,156.25,795.8333333333334,-500,900" transform="matrix(1,0,0,1,0,525)" opacity="0.88"></path><path d="M-10,10C33.75,11.25,114.58333333333334,22.25,200,16C285.41666666666663,9.75,316.66666666666663,-25.625,400,-20C483.33333333333337,-14.375,516.6666666666666,40.916666666666664,600,43C683.3333333333334,45.083333333333336,716.6666666666666,-6.041666666666667,800,-10C883.3333333333334,-13.958333333333332,916.6666666666666,22.75,1000,24C1083.3333333333333,25.25,1116.6666666666667,-4,1200,-4C1283.3333333333333,-4,1316.6666666666667,24.416666666666668,1400,24C1483.3333333333333,23.583333333333332,1516.6666666666667,-6.833333333333333,1600,-6C1683.3333333333333,-5.166666666666667,1716.6666666666667,26.333333333333332,1800,28C1883.3333333333333,29.666666666666668,1916.6666666666667,-1.541666666666667,2000,2C2083.3333333333335,5.541666666666667,2118.75,43.333333333333336,2200,45C2281.25,46.666666666666664,2296.25,-63.95833333333333,2390,10C2483.75,83.95833333333333,3252.0833333333335,214.58333333333331,2650,400C2047.9166666666665,585.4166666666667,156.25,795.8333333333334,-500,900" transform="matrix(1,0,0,1,0,560)" opacity="0.94"></path><path d="M-10,10C33.75,11.25,114.58333333333334,22.25,200,16C285.41666666666663,9.75,316.66666666666663,-25.625,400,-20C483.33333333333337,-14.375,516.6666666666666,40.916666666666664,600,43C683.3333333333334,45.083333333333336,716.6666666666666,-6.041666666666667,800,-10C883.3333333333334,-13.958333333333332,916.6666666666666,22.75,1000,24C1083.3333333333333,25.25,1116.6666666666667,-4,1200,-4C1283.3333333333333,-4,1316.6666666666667,24.416666666666668,1400,24C1483.3333333333333,23.583333333333332,1516.6666666666667,-6.833333333333333,1600,-6C1683.3333333333333,-5.166666666666667,1716.6666666666667,26.333333333333332,1800,28C1883.3333333333333,29.666666666666668,1916.6666666666667,-1.541666666666667,2000,2C2083.3333333333335,5.541666666666667,2118.75,43.333333333333336,2200,45C2281.25,46.666666666666664,2296.25,-63.95833333333333,2390,10C2483.75,83.95833333333333,3252.0833333333335,214.58333333333331,2650,400C2047.9166666666665,585.4166666666667,156.25,795.8333333333334,-500,900" transform="matrix(1,0,0,1,0,595)" opacity="1.00"></path></g></svg>