<svg id="visual" viewBox="0 0 960 600" width="960" height="600" xmlns="http://www.w3.org/2000/svg" xmlns:xlink="http://www.w3.org/1999/xlink" version="1.1"><rect x="0" y="0" width="960" height="600" fill="#ffffff"></rect><path d="M0 137L22.8 133.3C45.7 129.7 91.3 122.3 137 124.7C182.7 127 228.3 139 274 151.3C319.7 163.7 365.3 176.3 411.2 170.3C457 164.3 503 139.7 548.8 135.3C594.7 131 640.3 147 686 157.5C731.7 168 777.3 173 823 168.7C868.7 164.3 914.3 150.7 937.2 143.8L960 137L960 0L937.2 0C914.3 0 868.7 0 823 0C777.3 0 731.7 0 686 0C640.3 0 594.7 0 548.8 0C503 0 457 0 411.2 0C365.3 0 319.7 0 274 0C228.3 0 182.7 0 137 0C91.3 0 45.7 0 22.8 0L0 0Z" fill="#000000" stroke-linecap="round" stroke-linejoin="miter"></path></svg>